<svg width="26" height="26" fill="none" xmlns="http://www.w3.org/2000/svg">

    <symbol id="facebook" viewBox="0 0 26 26">
        <g>
            <path d="M26 13C26 20.1797 20.1797 26 13 26C5.8203 26 0 20.1797 0 13C0 5.8203 5.8203 0 13 0C20.1797 0 26 5.8203 26 13Z" fill="" fill-opacity="0.5"/>
            <path fill-rule="evenodd" clip-rule="evenodd" d="M17 7.75008H15.4C14.2983 7.75008 14.3334 8.14316 14.3334 8.8619V9.99991H17L16.4666 13H14.3334V21H10.6V13H9V9.99991H10.6V8.58692C10.6 6.33782 11.7974 5 14.6268 5H17V7.75008Z" fill="white"/>
        </g>
    </symbol>

    <symbol id="instagram" viewBox="0 0 26 26">
        <g>
      
            <circle cx="13" cy="13" r="13" fill="" fill-opacity="0.5"/>
            <path fill-rule="evenodd" clip-rule="evenodd" d="M9.70172 5.04829C8.8501 5.087 8.26863 5.22215 7.75974 5.42002C7.23357 5.62431 6.78768 5.89803 6.34294 6.34276C5.89791 6.78749 5.62447 7.23351 5.42017 7.75967C5.2223 8.26869 5.08701 8.85014 5.04829 9.7016C5.00929 10.5549 5 10.8272 5 13C5 15.1728 5.00929 15.4449 5.04829 16.2984C5.08701 17.1499 5.2223 17.7313 5.42017 18.24C5.62447 18.7662 5.89791 19.2125 6.34294 19.6571C6.78768 20.102 7.23357 20.3754 7.75974 20.58C8.26863 20.7779 8.8501 20.913 9.70172 20.9517C10.5551 20.9907 10.8274 21 13.0001 21C15.1729 21 15.4452 20.9907 16.2986 20.9517C17.15 20.913 17.7315 20.7779 18.2407 20.58C18.7664 20.3754 19.2127 20.102 19.6575 19.6571C20.1022 19.2125 20.3755 18.7662 20.5801 18.24C20.7778 17.7313 20.9133 17.1499 20.952 16.2984C20.991 15.4449 21 15.1728 21 13C21 10.8272 20.991 10.5549 20.952 9.7016C20.9133 8.85014 20.7778 8.26869 20.5801 7.75967C20.3755 7.23351 20.1022 6.78749 19.6575 6.34276C19.2127 5.89803 18.7664 5.62431 18.2407 5.42002C17.7315 5.22215 17.15 5.087 16.2986 5.04829C15.4452 5.00943 15.1729 5 13.0001 5C10.8274 5 10.5551 5.00943 9.70172 5.04829ZM9.76747 19.5116C8.98742 19.4761 8.56382 19.3461 8.28209 19.2364C7.9085 19.091 7.6422 18.9177 7.36218 18.6378C7.08216 18.358 6.90886 18.0915 6.76357 17.7181C6.65399 17.4362 6.52384 17.0126 6.48812 16.2326C6.44969 15.389 6.44141 15.1359 6.44141 12.9999C6.44141 10.8637 6.44969 10.6108 6.48812 9.76709C6.52384 8.9872 6.65399 8.56362 6.76357 8.28175C6.90886 7.90831 7.08216 7.64173 7.36218 7.36186C7.6422 7.08199 7.9085 6.90841 8.28209 6.76355C8.56382 6.65398 8.98742 6.52369 9.76747 6.48797C10.611 6.44954 10.8641 6.4414 13.0001 6.4414C15.1361 6.4414 15.3891 6.44954 16.233 6.48797C17.0128 6.52369 17.4364 6.65398 17.7184 6.76355C18.0918 6.90841 18.3583 7.08199 18.6382 7.36186C18.9182 7.64173 19.0913 7.90831 19.2366 8.28175C19.3462 8.56362 19.4765 8.9872 19.5122 9.76709C19.5507 10.6108 19.5585 10.8637 19.5585 12.9999C19.5585 15.1359 19.5507 15.389 19.5122 16.2326C19.4765 17.0126 19.3462 17.4362 19.2366 17.7181C19.0913 18.0915 18.9182 18.358 18.6382 18.6378C18.3583 18.9177 18.0918 19.091 17.7184 19.2364C17.4364 19.3461 17.0128 19.4761 16.233 19.5116C15.3894 19.5503 15.1364 19.5583 13.0001 19.5583C10.8641 19.5583 10.611 19.5503 9.76747 19.5116ZM16.3105 8.72943C16.3105 9.25945 16.7403 9.68947 17.2706 9.68947C17.8008 9.68947 18.2305 9.25945 18.2305 8.72943C18.2305 8.19913 17.8008 7.76954 17.2706 7.76954C16.7403 7.76954 16.3105 8.19913 16.3105 8.72943ZM8.8916 13.0002C8.8916 15.2691 10.731 17.1082 12.9999 17.1082C15.2689 17.1082 17.108 15.2691 17.108 13.0002C17.108 10.7312 15.2689 8.89203 12.9999 8.89203C10.731 8.89203 8.8916 10.7312 8.8916 13.0002ZM10.334 13.0001C10.334 11.5273 11.5278 10.3334 13.0006 10.3334C14.4734 10.3334 15.6673 11.5273 15.6673 13.0001C15.6673 14.473 14.4734 15.6668 13.0006 15.6668C11.5278 15.6668 10.334 14.473 10.334 13.0001Z" fill="white"/>


        </g>
    </symbol>

    <symbol id="twitter" viewBox="0 0 26 26">
        <g>           
            <path d="M26 13C26 20.1797 20.1797 26 13 26C5.8203 26 0 20.1797 0 13C0 5.8203 5.8203 0 13 0C20.1797 0 26 5.8203 26 13Z" fill="" fill-opacity="0.5"/>
            <path fill-rule="evenodd" clip-rule="evenodd" d="M21 7.65713C20.4114 7.93821 19.7787 8.12837 19.1147 8.21377C19.7923 7.77623 20.313 7.08372 20.5579 6.25827C19.9237 6.6633 19.2211 6.95752 18.4734 7.11604C17.8747 6.42906 17.0216 6 16.0774 6C14.2646 6 12.7949 7.58227 12.7949 9.53414C12.7949 9.81108 12.8238 10.0809 12.8798 10.3397C10.1517 10.1923 7.73296 8.7851 6.11392 6.6467C5.83136 7.16877 5.66944 7.77589 5.66944 8.42363C5.66944 9.64979 6.24896 10.7316 7.12976 11.3655C6.59168 11.347 6.08544 11.1882 5.64304 10.9235C5.64272 10.938 5.64272 10.9529 5.64272 10.9677C5.64272 12.6802 6.77424 14.1086 8.27584 14.4334C8.00048 14.5142 7.7104 14.5576 7.41104 14.5576C7.19952 14.5576 6.99392 14.5353 6.79344 14.4939C7.2112 15.898 8.42336 16.92 9.85984 16.9485C8.73648 17.8964 7.32096 18.4615 5.78304 18.4615C5.51808 18.4615 5.2568 18.4447 5 18.412C6.45264 19.4148 8.17824 20 10.0318 20C16.0698 20 19.3715 14.6144 19.3715 9.94401C19.3715 9.79068 19.3683 9.63821 19.3621 9.4866C20.0035 8.98839 20.56 8.36589 21 7.65713Z" fill="white"/>
        </g>
    </symbol>

    <symbol id="youtube" viewBox="0 0 26 26">
        <g>
            <circle cx="13" cy="13" r="13" fill="" fill-opacity="0.5"/>
            <path fill-rule="evenodd" clip-rule="evenodd" d="M16.0062 11.7728L11.4938 9.51719C11.4938 9.51719 10.2404 8.94726 10.2404 10.0186V15.031C10.2404 15.031 10.2636 15.7955 11.4938 15.2815C12.3498 14.9237 16.0062 13.0258 16.0062 13.0258C16.0062 13.0258 16.9391 12.4282 16.0062 11.7728ZM21.5213 16.7852C20.9624 18.3749 19.7669 18.5797 18.7637 18.7901C17.2852 19.1002 7.77237 19.0612 6.22922 18.5394C5.26706 18.2141 4.67503 18.0741 4.22386 15.7827C3.93499 14.3165 3.91592 10.003 4.22386 8.51494C4.52204 7.07408 5.27096 6.39753 6.73067 6.25928C10.6515 5.88785 17.205 5.94029 19.265 6.25928C21.1748 6.55486 21.5739 7.69385 21.772 8.76545C22.0927 10.5004 22.1304 15.0524 21.5213 16.7852Z" fill="white"/>   
        </g>
    </symbol>

    <symbol id="card_icon" viewBox="0 0 37 37">       
        <path d="M37 18.5C37 8.30445 28.6956 0 18.5 0C8.30445 0 0 8.30445 0 18.5C0 24.6256 3.00111 30.0933 7.64667 33.4644C7.72889 33.5467 7.81111 33.5878 7.89333 33.6289C10.8944 35.7667 14.5533 37 18.5 37C22.4467 37 26.1056 35.7667 29.1067 33.6289C29.1889 33.5878 29.2711 33.5056 29.3533 33.4644C33.9989 30.0933 37 24.6256 37 18.5ZM9.04445 32.4367V31.6556C9.04445 26.4344 13.2789 22.2 18.5 22.2C23.7211 22.2 27.9556 26.4344 27.9556 31.6556V32.4367C25.2422 34.2867 21.9944 35.3556 18.5 35.3556C15.0056 35.3556 11.7578 34.2867 9.04445 32.4367ZM13.5667 15.6222C13.5667 12.9089 15.7867 10.6889 18.5 10.6889C21.2133 10.6889 23.4333 12.9089 23.4333 15.6222C23.4333 18.3356 21.2133 20.5556 18.5 20.5556C15.7867 20.5556 13.5667 18.3356 13.5667 15.6222ZM29.6 31.1622C29.3944 26.4756 26.3111 22.57 22.0767 21.1311C23.8856 19.98 25.0778 17.9244 25.0778 15.6222C25.0778 12.0044 22.1178 9.04445 18.5 9.04445C14.8822 9.04445 11.9222 12.0044 11.9222 15.6222C11.9222 17.9244 13.1144 19.98 14.9233 21.1311C10.6889 22.57 7.60556 26.5167 7.4 31.1622C3.86444 28.0789 1.64444 23.5567 1.64444 18.5C1.64444 9.20889 9.20889 1.64444 18.5 1.64444C27.7911 1.64444 35.3556 9.20889 35.3556 18.5C35.3556 23.5567 33.1356 28.0789 29.6 31.1622Z" fill="#767474"/> 
    </symbol>

    <symbol id="4" viewBox="0 0 39 52">
        <path d="M31.7695 33.7539H38.1328V40.6094H31.7695V52H23.2266V40.6094H1.11328L0.867188 35.4062L22.9453 0.8125H31.7695V33.7539ZM9.83203 33.7539H23.2266V12.3789L22.5938 13.5039L9.83203 33.7539Z" fill="black"/>
    </symbol>

    <symbol id="cross" viewBox="0 0 14 14">
        <path d="M1 14C0.744141 14 0.488281 13.9023 0.292969 13.707C-0.0976562 13.3164 -0.0976562 12.6836 0.292969 12.293L12.293 0.292969C12.6836 -0.0976562 13.3164 -0.0976562 13.707 0.292969C14.0977 0.683594 14.0977 1.31641 13.707 1.70703L1.70703 13.707C1.51172 13.9023 1.25586 14 1 14Z" fill="#333B41"/>
        <path d="M13 14C12.7441 14 12.4883 13.9023 12.293 13.707L0.292969 1.70703C-0.0976562 1.31641 -0.0976562 0.683594 0.292969 0.292969C0.683594 -0.0976562 1.31641 -0.0976562 1.70703 0.292969L13.707 12.293C14.0977 12.6836 14.0977 13.3164 13.707 13.707C13.5117 13.9023 13.2559 14 13 14Z" fill="#333B41"/>
    </symbol>

    <symbol id="panda"  viewBox="0 0 270 199" >
        <g>
         <path d="M248.818 149.012C259.667 128.031 268.492 102.302 268.492 74.8823C268.492 61.1086 264.189 45.4516 256.983 33.0005C250.681 22.113 238.996 8.04664 219.099 2.8605C193.918 -3.70199 168.405 2.41795 147.905 7.33602C140.497 9.11321 133.499 10.7918 127.505 11.6219C114.063 13.4819 99.861 13.2094 87.6527 12.7377H87.6447C85.7346 12.6638 83.8685 12.5854 82.0672 12.5095C74.354 12.1839 56.5905 11.8716 56.5905 11.8716C55.6211 7.75076 53.4112 4.37468 50.6527 2.81625C49.484 2.16698 48.2082 1.83787 46.9188 1.85308C45.6294 1.86828 44.3593 2.22742 43.2017 2.90412C39.4074 4.9519 37.588 9.50202 38.4481 14.6388C32.3687 17.7595 26.4293 23.9711 22.8271 28.8557C19.7343 33.0492 17.1116 39.6705 14.5743 46.0737C11.9909 52.5951 9.31994 59.3384 6.64684 62.0614C5.9925 62.7224 5.41381 63.4829 4.92562 64.3235C4.91713 64.3235 4.90864 64.3178 4.89962 64.3159C4.34066 64.1818 3.76434 64.1883 3.20763 64.3352C2.65092 64.482 2.12611 64.7658 1.66685 65.1684C1.20759 65.5711 0.824019 66.0837 0.540739 66.6733C0.257459 67.2629 0.0807214 67.9166 0.0218613 68.5924C-0.0369987 69.2681 0.0233178 69.9511 0.198943 70.5975C0.374568 71.2438 0.661624 71.8393 1.0417 72.3458C1.42178 72.8522 1.88649 73.2584 2.40603 73.5383C2.92557 73.8183 3.48848 73.9657 4.05864 73.9712C4.54128 75.7629 5.19313 77.4835 6.00165 79.0998C11.3807 90.1328 19.8898 96.9918 27.3971 103.042C31.5356 106.378 35.4439 109.529 38.472 113.048C40.7437 115.78 42.7198 118.84 44.3541 122.157C44.3721 122.199 44.396 122.235 44.4156 122.276C47.4893 128.404 49.9274 135.881 50.3826 143.022C50.9583 152.044 52.3203 176.404 52.7485 184.098C51.2693 184.659 49.8817 185.518 48.646 186.637C47.7266 187.465 47.0521 188.62 46.7199 189.935C46.3877 191.251 46.4151 192.658 46.798 193.953C47.1615 195.275 47.8684 196.425 48.8166 197.237C49.7647 198.049 50.905 198.481 52.0725 198.469H77.215C78.025 198.471 78.8253 198.26 79.5597 197.853C80.2941 197.446 80.9446 196.852 81.4655 196.113C87.026 188.234 100.896 167.929 109.674 149.507C143.654 149.467 166.86 147.998 180.397 145.018C182.413 160.207 185.076 177.514 186.05 183.756C185.209 184.225 184.415 184.801 183.68 185.475C182.674 186.4 181.936 187.676 181.57 189.124C181.203 190.573 181.226 192.123 181.636 193.555C182.045 194.988 182.821 196.232 183.853 197.113C184.886 197.994 186.124 198.468 187.394 198.468H210.961C212.355 198.467 213.706 197.896 214.79 196.852C222.562 189.34 236.783 172.18 248.642 149.355C248.707 149.245 248.766 149.131 248.818 149.012ZM82.7384 76.8194C75.1366 95.8013 61.7558 111.156 47.5021 117.419C45.8655 114.368 43.9567 111.537 41.8089 108.976C38.4747 105.101 34.3944 101.812 30.0744 98.3302C22.6462 92.3418 14.9627 86.1498 10.1323 76.2415C7.19176 70.2108 8.29007 67.8753 9.75131 66.3871C13.2033 62.8706 15.9677 55.8921 18.8949 48.5027C21.29 42.4555 23.7668 36.2028 26.416 32.6124C29.6218 28.2646 35.323 22.2521 40.84 19.6157C41.382 19.3558 41.8693 18.9569 42.2673 18.4474C45.2832 23.6999 52.4662 22.9254 54.2692 18.1426C54.3949 17.799 54.4882 17.4398 54.5472 17.0717C62.1394 18.2482 74.2368 17.8714 81.899 18.1964C83.1979 18.2514 84.5371 18.307 85.8932 18.3614C91.4809 37.0582 90.3788 57.7408 82.7384 76.8194ZM229.255 128.936C224.804 127.95 202.711 123.969 184.181 136.909C183.3 129.773 182.699 123.838 182.699 120.937C182.699 120.183 182.447 119.459 182 118.926C181.552 118.392 180.945 118.092 180.311 118.092C179.678 118.092 179.071 118.392 178.623 118.926C178.175 119.459 177.924 120.183 177.924 120.937C177.924 124.306 178.645 131.248 179.668 139.393C168.107 141.967 149.042 143.399 121.715 143.739C127.155 139.803 131.493 134.153 134.661 126.804C139.073 116.576 141.023 103.251 140.3 88.2677C139.486 71.3873 128.6 48.65 119.852 30.3825C117.826 26.1523 115.886 22.1004 114.27 18.5144C118.871 18.2899 123.497 17.9043 128.054 17.2733C134.245 16.4173 141.337 14.7153 148.845 12.911C168.907 8.09785 193.875 2.10753 218.076 8.4165C251.326 17.0856 263.716 53.7856 263.716 74.8823C263.716 99.1635 256.475 122.109 247.132 141.388C244.389 136.5 238.673 131.023 229.255 128.936Z" fill="black"/>
         <path d="M32.0017 42.2392C22.3919 37.8144 16.8025 50.2411 22.9183 57.5388C26.2626 61.5273 29.4418 70.7695 36.7085 70.0029C48.2537 68.7877 47.1906 49.2253 32.0017 42.2392ZM27.6484 54.2627C27.0785 54.2627 26.5214 54.0586 26.0475 53.6763C25.5737 53.294 25.2044 52.7506 24.9863 52.1148C24.7682 51.479 24.7112 50.7794 24.8223 50.1045C24.9335 49.4296 25.2079 48.8096 25.6109 48.323C26.0139 47.8364 26.5273 47.505 27.0862 47.3708C27.6452 47.2365 28.2245 47.3055 28.751 47.5688C29.2775 47.8321 29.7275 48.2781 30.0442 48.8503C30.3608 49.4225 30.5298 50.0952 30.5298 50.7833C30.5296 51.706 30.226 52.5909 29.6857 53.2434C29.1453 53.8959 28.4125 54.2625 27.6484 54.2627Z" fill="black"/>
         <path d="M135.331 154.951C135.301 154.811 135.233 154.687 135.136 154.599C135.04 154.511 134.921 154.464 134.799 154.465C132.193 154.498 118.399 154.668 112.55 154.696C112.46 154.695 112.372 154.722 112.293 154.774C112.214 154.825 112.148 154.9 112.101 154.99C108.342 162.044 101.747 173.019 97.3921 180.164C97.3204 180.282 97.285 180.425 97.2918 180.57C97.2986 180.715 97.3472 180.852 97.4295 180.96L103.515 189.012L103.45 189.127C103.429 189.172 103.402 189.216 103.38 189.261C102.905 190.179 102.646 191.23 102.63 192.306C102.613 193.382 102.84 194.443 103.286 195.381C103.732 196.319 104.382 197.099 105.169 197.642C105.955 198.185 106.85 198.471 107.762 198.47H133.641C134.325 198.469 135.003 198.307 135.633 197.993C136.264 197.679 136.835 197.219 137.313 196.641C137.791 196.062 138.166 195.376 138.416 194.624C138.666 193.872 138.787 193.068 138.77 192.26C138.683 188.097 138.456 181.562 137.893 174.47C137.426 167.901 136.57 161.379 135.331 154.951Z" fill="black"/>
         <path d="M262.923 131.544C262.888 131.422 262.824 131.316 262.738 131.239C262.652 131.163 262.549 131.12 262.443 131.116C262.336 131.112 262.231 131.148 262.142 131.218C262.053 131.288 261.983 131.39 261.942 131.509C261.238 133.589 260.447 135.625 259.574 137.608C252.27 154.22 243.413 169.754 233.177 183.901C233.09 184.02 233.043 184.174 233.045 184.334C233.047 184.493 233.099 184.645 233.19 184.76L234.959 187.026C234.439 187.773 234.003 188.6 233.662 189.486C233.295 190.466 233.139 191.541 233.207 192.614C233.275 193.686 233.565 194.72 234.051 195.62C234.483 196.476 235.086 197.185 235.804 197.684C236.522 198.182 237.331 198.452 238.158 198.47H265.025C265.688 198.469 266.345 198.308 266.956 197.995C267.567 197.683 268.121 197.225 268.584 196.648C269.048 196.072 269.411 195.39 269.654 194.64C269.897 193.891 270.014 193.09 269.999 192.285C269.733 179.33 268.499 150.618 262.923 131.544Z" fill="black"/>
        </g>
    </symbol>

    <symbol id='dollar'  width="10" height="20" viewBox="0 0 10 20" fill="none">
        <path d="M8.07792 6.25974C7.66234 5.87013 7.24675 5.58442 6.85714 5.37662C6.46753 5.19481 6.02597 5.09091 5.53247 5.09091C4.96104 5.09091 4.54545 5.22078 4.25974 5.45455C3.97403 5.68831 3.81818 6.07792 3.81818 6.5974C3.81818 6.96104 3.97403 7.2987 4.28571 7.53247C4.5974 7.79221 4.96104 8.02597 5.42857 8.25974C5.8961 8.49351 6.38961 8.72727 6.90909 8.98701C7.42857 9.24675 7.92208 9.53247 8.38961 9.8961C8.85714 10.2597 9.22078 10.6753 9.53247 11.1948C9.84416 11.7143 10 12.3377 10 13.0649C10 14.1818 9.68831 15.1429 9.09091 15.9481C8.49351 16.7532 7.55844 17.2727 6.36364 17.5584V20H4.1039V17.6623C3.42857 17.5844 2.7013 17.4026 1.94805 17.0909C1.19481 16.7792 0.545455 16.3896 0 15.8961L1.50649 13.5844C2.1039 14.026 2.67532 14.3636 3.19481 14.5974C3.74026 14.8312 4.28571 14.9351 4.83117 14.9351C5.48052 14.9351 5.97403 14.8052 6.25974 14.5455C6.57143 14.2857 6.72727 13.8701 6.72727 13.3247C6.72727 12.9091 6.57143 12.5714 6.25974 12.2857C5.94805 12 5.58442 11.7403 5.11688 11.4805C4.64935 11.2208 4.15584 10.961 3.63636 10.7013C3.11688 10.4416 2.62338 10.1299 2.15584 9.76623C1.68831 9.4026 1.32468 8.98701 1.01299 8.49351C0.701299 8 0.545455 7.42857 0.545455 6.72727C0.545455 5.58442 0.857143 4.62338 1.48052 3.87013C2.1039 3.11688 2.98701 2.62338 4.07792 2.41558V0H6.33766V2.36364C7.09091 2.46753 7.74026 2.7013 8.31169 3.03896C8.88312 3.37662 9.37662 3.79221 9.84416 4.28571L8.07792 6.25974Z" fill="#929699"/>
    </symbol>

    <symbol id="logo-bamboo" viewBox="0 0 22 33">   
        <path fill-rule="evenodd" clip-rule="evenodd" d="M19.3978 31.6248C18.9372 29.9806 17.5635 28.0496 16.4935 25.9642C17.4107 27.7517 18.3278 29.5393 19.3978 31.6248ZM21.9819 31.4368C20.4554 29.2079 19.5362 26.67 18.617 24.132C17.8548 23.3928 17.2475 23.7019 16.6402 24.0109C15.5784 24.927 14.5146 25.0927 15.7334 25.9753C17.2599 28.2042 18.3299 30.2897 19.0962 32.5297C19.3999 32.3751 20.0072 32.0661 20.3108 31.9115C20.9181 31.6025 21.0689 31.15 21.9819 31.4368ZM15.4235 23.8787C14.9629 22.2345 13.5892 20.3036 12.5192 18.2181C13.4364 20.0056 14.3535 21.7932 15.4235 23.8787ZM11.2964 15.8347C10.9886 14.4884 9.46208 12.2595 8.54493 10.472C9.46208 12.2595 10.2264 13.7492 11.4492 16.1326C11.4492 16.1326 11.4492 16.1326 11.2964 15.8347ZM13.8805 15.6467C12.5068 13.7158 11.5876 11.1778 10.5155 8.34194C9.90618 7.90062 9.29888 8.20968 8.69159 8.51875C7.62985 9.43481 6.56605 9.60048 7.78478 10.4831C9.15843 12.4141 10.3813 14.7975 11.1476 17.0375C11.4513 16.883 12.0586 16.5739 12.3622 16.4194C12.8167 15.8124 13.1203 15.6578 13.8805 15.6467ZM7.32207 8.08857C7.01429 6.74233 5.48778 4.51346 4.57064 2.7259C5.48778 4.51346 6.25207 6.00309 7.47493 8.3865L7.32207 8.08857ZM9.90618 7.90062C8.53253 5.96967 7.61332 3.43172 6.54125 0.595853C5.93189 0.154533 5.32459 0.463599 4.71729 0.772666C3.65556 1.68872 2.4389 1.55647 3.81048 2.73704C5.18413 4.66799 6.40699 7.0514 7.17335 9.29142C7.477 9.13688 8.08429 8.82782 8.23508 8.37536C8.84238 8.06629 9.14603 7.91176 9.90618 7.90062ZM9.32162 16.4639C8.10496 16.3317 7.19195 16.0449 5.97529 15.9126C7.19195 16.0449 7.9521 16.0338 9.32162 16.4639C7.4956 15.8904 6.12608 15.4602 4.45292 15.1845C5.82243 15.6147 7.03909 15.747 8.86511 16.3205C6.88623 15.449 5.21307 15.1734 3.6907 14.4453C5.06021 14.8755 6.42973 15.3056 8.40861 16.1771C6.73338 15.1511 4.90736 14.5775 3.08133 14.004C4.90736 14.5775 6.88623 15.449 9.32162 16.4639C9.77812 16.6073 9.77812 16.6073 9.32162 16.4639ZM8.71432 16.773C8.71432 16.773 8.41067 16.9275 8.25782 16.6296C5.97736 16.663 4.00054 16.5419 2.17659 16.7187C3.84975 16.9944 5.67371 16.8176 7.49766 16.6407C5.67371 16.8176 4.1534 16.8398 2.78595 17.16C4.30626 17.1378 6.13021 16.9609 7.95417 16.7841C6.43386 16.8064 5.06641 17.1266 3.69896 17.4468C5.52292 17.27 6.89037 16.9498 8.41067 16.9275C7.34687 17.0932 6.28307 17.2589 5.21927 17.4245C6.28307 17.2589 7.34687 17.0932 8.41067 16.9275C8.71432 16.773 8.71432 16.773 8.71432 16.773ZM9.63147 18.5606C9.02417 18.8696 8.56973 19.4766 7.65879 19.9402C8.26608 19.6311 8.72052 19.0242 9.63147 18.5606C8.72052 19.0242 7.65879 19.9402 6.74784 20.4038C7.65879 19.9402 8.41688 19.1787 9.32782 18.7151C8.11323 19.3332 6.89864 19.9514 5.8369 20.8674C6.59499 20.1059 7.80958 19.4878 9.02417 18.8696C7.80958 19.4878 6.59499 20.1059 5.3804 20.724C6.59499 20.1059 7.96037 19.0353 9.47861 18.2626C9.78226 18.1081 9.93512 18.406 9.63147 18.5606ZM9.78432 18.8585C9.48068 19.013 9.48068 19.013 9.48068 19.013C8.26815 20.3815 7.35927 21.5955 6.75405 22.655C7.35927 21.5955 8.26815 20.3815 9.02624 19.62C8.42101 20.6795 7.66292 21.441 7.05769 22.5004C7.66292 21.441 8.5718 20.227 9.17703 19.1675C8.5718 20.227 8.27022 21.1319 7.81578 21.7389C8.27022 21.1319 8.87545 20.0725 9.48068 19.013C9.1791 19.9179 8.72466 20.5249 8.57387 20.9774C9.02831 20.3704 9.02624 19.62 9.48068 19.013L9.78432 18.8585ZM10.5424 18.097C10.8461 17.9424 10.8461 17.9424 11.1497 17.7879C11.3026 18.0858 11.3026 18.0858 11.7591 18.2292C13.2856 20.4581 14.3556 22.5436 15.1219 24.7836C15.4256 24.6291 16.0329 24.32 16.3365 24.1655C16.791 23.5585 17.0946 23.4039 17.8548 23.3928C16.4811 21.4618 15.5619 18.9239 14.4898 16.088C13.8805 15.6467 13.2732 15.9558 12.6659 16.2648C11.9078 17.0264 11.1476 17.0375 10.9969 17.49C10.844 17.192 10.3875 17.0486 10.2346 16.7507C10.0818 16.4528 9.62527 16.3094 8.86305 15.5702C6.88417 14.6987 3.68863 13.6949 2.01547 13.4193C2.47404 14.313 4.90942 15.3279 6.8883 16.1994C4.91149 16.0783 2.32738 16.2663 0.809141 17.0389C2.33151 17.767 7.95624 17.5345 9.62733 17.0598C9.62733 17.0598 9.93098 16.9052 10.0838 17.2032C10.5403 17.3466 10.9969 17.49 11.1497 17.7879C10.8461 17.9424 10.5424 18.097 10.0859 17.9536C10.0859 17.9536 9.78226 18.1081 9.17496 18.4172C7.50386 18.8919 5.53119 20.2716 4.46945 21.1876C5.38246 21.4744 7.20435 20.5472 8.56973 19.4766C7.66086 20.6906 6.60119 22.357 5.99596 23.4165C7.36341 23.0963 9.78639 19.6089 9.93512 18.406C10.2388 18.2515 10.2388 18.2515 10.5424 18.097Z" fill=""/>
    </symbol>

    <symbol id="banana_bamboo" >
        <g>
            <path fill-rule="evenodd" clip-rule="evenodd" d="M24.3979 31.6248C23.9372 29.9806 22.5636 28.0496 21.4936 25.9642C22.4107 27.7517 23.3279 29.5393 24.3979 31.6248ZM26.982 31.4368C25.4555 29.2079 24.5363 26.67 23.617 24.132C22.8548 23.3928 22.2475 23.7019 21.6402 24.0109C20.5785 24.927 19.5147 25.0927 20.7334 25.9753C22.2599 28.2042 23.3299 30.2897 24.0963 32.5297C24.3999 32.3751 25.0072 32.0661 25.3109 31.9115C25.9182 31.6025 26.069 31.15 26.982 31.4368ZM20.4236 23.8787C19.9629 22.2345 18.5893 20.3036 17.5193 18.2181C18.4364 20.0056 19.3536 21.7932 20.4236 23.8787ZM16.2964 15.8347C15.9886 14.4884 14.4621 12.2595 13.545 10.472C14.4621 12.2595 15.2264 13.7492 16.4493 16.1326C16.4493 16.1326 16.4493 16.1326 16.2964 15.8347ZM18.8805 15.6467C17.5069 13.7158 16.5877 11.1778 15.5156 8.34194C14.9062 7.90062 14.2989 8.20968 13.6916 8.51875C12.6299 9.43481 11.5661 9.60048 12.7848 10.4831C14.1585 12.4141 15.3813 14.7975 16.1477 17.0375C16.4513 16.883 17.0586 16.5739 17.3623 16.4194C17.8167 15.8124 18.1204 15.6578 18.8805 15.6467ZM12.3221 8.08857C12.0144 6.74233 10.4878 4.51346 9.5707 2.7259C10.4878 4.51346 11.2521 6.00309 12.475 8.3865L12.3221 8.08857ZM14.9062 7.90062C13.5326 5.96967 12.6134 3.43172 11.5413 0.595853C10.9319 0.154533 10.3247 0.463599 9.71736 0.772666C8.65562 1.68872 7.43896 1.55647 8.81055 2.73704C10.1842 4.66799 11.4071 7.0514 12.1734 9.29142C12.4771 9.13688 13.0844 8.82782 13.2351 8.37536C13.8424 8.06629 14.1461 7.91176 14.9062 7.90062ZM14.3217 16.4639C13.105 16.3317 12.192 16.0449 10.9754 15.9126C12.192 16.0449 12.9522 16.0338 14.3217 16.4639C12.4957 15.8904 11.1261 15.4602 9.45298 15.1845C10.8225 15.6147 12.0392 15.747 13.8652 16.3205C11.8863 15.449 10.2131 15.1734 8.69076 14.4453C10.0603 14.8755 11.4298 15.3056 13.4087 16.1771C11.7334 15.1511 9.90742 14.5775 8.08139 14.004C9.90742 14.5775 11.8863 15.449 14.3217 16.4639C14.7782 16.6073 14.7782 16.6073 14.3217 16.4639ZM13.7144 16.773C13.7144 16.773 13.4107 16.9275 13.2579 16.6296C10.9774 16.663 9.00061 16.5419 7.17665 16.7187C8.84982 16.9944 10.6738 16.8176 12.4977 16.6407C10.6738 16.8176 9.15346 16.8398 7.78601 17.16C9.30632 17.1378 11.1303 16.9609 12.9542 16.7841C11.4339 16.8064 10.0665 17.1266 8.69903 17.4468C10.523 17.27 11.8904 16.9498 13.4107 16.9275C12.3469 17.0932 11.2831 17.2589 10.2193 17.4245C11.2831 17.2589 12.3469 17.0932 13.4107 16.9275C13.7144 16.773 13.7144 16.773 13.7144 16.773ZM14.6315 18.5606C14.0242 18.8696 13.5698 19.4766 12.6588 19.9402C13.2661 19.6311 13.7206 19.0242 14.6315 18.5606C13.7206 19.0242 12.6588 19.9402 11.7479 20.4038C12.6588 19.9402 13.4169 19.1787 14.3279 18.7151C13.1133 19.3332 11.8987 19.9514 10.837 20.8674C11.595 20.1059 12.8096 19.4878 14.0242 18.8696C12.8096 19.4878 11.595 20.1059 10.3805 20.724C11.595 20.1059 12.9604 19.0353 14.4787 18.2626C14.7823 18.1081 14.9352 18.406 14.6315 18.5606ZM14.7844 18.8585C14.4807 19.013 14.4807 19.013 14.4807 19.013C13.2682 20.3815 12.3593 21.5955 11.7541 22.655C12.3593 21.5955 13.2682 20.3815 14.0263 19.62C13.4211 20.6795 12.663 21.441 12.0578 22.5004C12.663 21.441 13.5719 20.227 14.1771 19.1675C13.5719 20.227 13.2703 21.1319 12.8158 21.7389C13.2703 21.1319 13.8755 20.0725 14.4807 19.013C14.1792 19.9179 13.7247 20.5249 13.5739 20.9774C14.0284 20.3704 14.0263 19.62 14.4807 19.013L14.7844 18.8585ZM15.5425 18.097C15.8461 17.9424 15.8461 17.9424 16.1498 17.7879C16.3026 18.0858 16.3026 18.0858 16.7591 18.2292C18.2856 20.4581 19.3556 22.5436 20.122 24.7836C20.4256 24.6291 21.0329 24.32 21.3366 24.1655C21.791 23.5585 22.0947 23.4039 22.8548 23.3928C21.4812 21.4618 20.562 18.9239 19.4899 16.088C18.8805 15.6467 18.2732 15.9558 17.6659 16.2648C16.9079 17.0264 16.1477 17.0375 15.9969 17.49C15.8441 17.192 15.3875 17.0486 15.2347 16.7507C15.0818 16.4528 14.6253 16.3094 13.8631 15.5702C11.8842 14.6987 8.68869 13.6949 7.01553 13.4193C7.4741 14.313 9.90948 15.3279 11.8884 16.1994C9.91155 16.0783 7.32744 16.2663 5.8092 17.0389C7.33157 17.767 12.9563 17.5345 14.6274 17.0598C14.6274 17.0598 14.931 16.9052 15.0839 17.2032C15.5404 17.3466 15.9969 17.49 16.1498 17.7879C15.8461 17.9424 15.5425 18.097 15.086 17.9536C15.086 17.9536 14.7823 18.1081 14.175 18.4172C12.5039 18.8919 10.5312 20.2716 9.46951 21.1876C10.3825 21.4744 12.2044 20.5472 13.5698 19.4766C12.6609 20.6906 11.6012 22.357 10.996 23.4165C12.3635 23.0963 14.7865 19.6089 14.9352 18.406C15.2388 18.2515 15.2388 18.2515 15.5425 18.097Z" fill="#468E0D"/>
            <path d="M28.1743 10.2391L28.1782 10.2251L28.178 10.2106L28.0821 4.15258L28.0819 4.14258L28.0798 4.13282C28.0313 3.91061 28.1382 3.69604 28.374 3.5221C28.61 3.34807 28.9617 3.22753 29.3541 3.20456C30.1288 3.15921 31.0324 3.49436 31.4726 4.49825C31.2842 5.37437 31.1772 6.23827 31.0707 7.09719L31.0705 7.09934C30.9625 7.97054 30.8552 8.83663 30.6646 9.71396L30.6554 9.75618L30.6798 9.79179C33.1412 13.3771 33.4114 17.285 32.1986 20.8178C30.9849 24.3533 28.2846 27.5151 24.8031 29.5944C21.3223 31.6733 17.0657 32.6672 12.7422 31.8738C8.42473 31.0815 4.03183 28.5054 0.272911 23.43C0.133783 22.8475 0.0778791 22.3617 0.107862 21.9745C0.138149 21.5834 0.255102 21.3025 0.452161 21.1196C0.648968 20.937 0.941107 20.838 1.35208 20.843C1.76321 20.848 2.28406 20.9573 2.92488 21.1815C13.4167 25.5384 25.0393 21.4704 28.1743 10.2391Z" fill="#FFEE2E" stroke="#468E0D" stroke-width="0.2"/>

        </g>
    </symbol>

    <symbol id="meet-fish-icon">
        <g>
            <path fill-rule="evenodd" clip-rule="evenodd" d="M12.1024 8.98763C12.007 9.07187 11.9117 9.15603 11.8185 9.24233C11.6029 9.43749 11.3909 9.63575 11.1825 9.83643C9.38673 11.5657 7.78774 13.5437 6.6388 15.7566C5.48834 17.9723 4.80473 20.4212 4.86857 22.8281C4.89742 23.9138 5.08235 25.0666 5.71905 26.0344C5.82872 26.2012 5.95174 26.3607 6.08746 26.5105L8.36464 29.0667L8.38678 29.0916C8.64858 29.3855 8.96124 29.6409 9.32367 29.8383C9.86832 30.1349 10.5143 30.2899 11.1989 30.2324C11.7923 30.1825 12.3503 29.9796 12.8455 29.7117C13.3384 29.4451 13.7667 29.1174 14.153 28.787C14.9248 28.127 15.5508 27.46 16.2157 27.028C17.4032 26.2563 18.9418 26.0344 20.4924 25.9976C22.0522 25.9606 23.7258 26.0837 25.4829 25.6704C27.621 25.1675 29.6032 23.8826 31.0106 22.1526C32.4163 20.4246 33.2195 18.3012 33.3175 16.2136C33.4205 14.02 32.7454 11.8979 31.4229 10.2758C31.347 10.1826 31.2683 10.0918 31.1881 10.0023L28.8889 7.42128C27.5758 5.94226 25.7291 4.95535 23.68 4.65156C21.419 4.31637 19.0301 4.81379 16.8853 5.80006C15.1302 6.60705 13.5391 7.72571 12.1036 8.98791L12.1024 8.98763ZM13.1015 10.039C13.2029 9.9494 13.3064 9.86201 13.4094 9.77453C14.6485 8.72736 15.9849 7.8224 17.4115 7.16641C19.3084 6.29421 21.3912 5.87562 23.2886 6.1569C25.0997 6.4254 26.7522 7.34853 27.8593 8.70642C28.9665 10.0644 29.5422 11.8732 29.4559 13.7117C29.3738 15.4604 28.6898 17.2579 27.5278 18.6862C26.3675 20.1125 24.7063 21.1847 22.9668 21.5939C21.5246 21.9331 19.9648 21.8388 18.3093 21.878C16.6447 21.9175 14.7816 22.1269 13.1489 23.1879C12.2335 23.7828 11.5602 24.5212 10.8968 25.0886C10.5655 25.3718 10.2353 25.6182 9.90217 25.7984C9.57129 25.9774 9.23105 26.092 8.92065 26.1181C8.56527 26.1479 8.18973 26.0647 7.86883 25.8899C7.54531 25.7137 7.26245 25.4412 7.04641 25.1128C6.61192 24.4524 6.44163 23.5637 6.41667 22.6231C6.36088 20.5213 6.96316 18.329 8.003 16.3263C9.04427 14.3208 10.5172 12.4884 12.203 10.8651C12.4964 10.5826 12.7958 10.3067 13.1015 10.0391L13.1015 10.039ZM14.015 11.0754C13.7303 11.323 13.4515 11.5814 13.1765 11.8464C11.5957 13.3687 10.2429 15.0624 9.30423 16.8702C8.36992 18.6697 7.84517 20.6174 7.89322 22.4282C7.9145 23.2306 8.07096 23.8673 8.3126 24.2345C8.42989 24.4129 8.57284 24.5386 8.68817 24.6014C8.7958 24.66 8.91341 24.675 8.95477 24.6715C8.99586 24.668 9.1285 24.6375 9.30237 24.5435C9.48293 24.4458 9.71956 24.2773 9.99852 24.0387C10.5587 23.5597 11.2768 22.7532 12.4311 22.0031C14.4883 20.6662 16.6608 20.4686 18.4343 20.4266C20.181 20.3852 21.6323 20.4522 22.7742 20.1836C24.1336 19.8638 25.489 18.9942 26.4137 17.8576C27.3432 16.7149 27.9135 15.2281 27.9805 13.8025C28.0509 12.3028 27.5697 10.7926 26.6678 9.6864C25.7663 8.58064 24.3881 7.81122 22.9156 7.59289C21.3648 7.36301 19.5739 7.70641 17.9135 8.46987C16.6568 9.04773 15.447 9.86075 14.3003 10.8301C14.2046 10.9107 14.1096 10.9926 14.015 11.0754L14.015 11.0754ZM20.7828 13.0188C21.3287 12.5367 21.9803 12.2182 22.5945 12.1335C23.2086 12.0487 23.7349 12.2046 24.0576 12.5668C24.3803 12.929 24.4729 13.4679 24.3152 14.065C24.1574 14.662 23.7621 15.2683 23.2163 15.7504C22.946 15.9891 22.6469 16.1902 22.3361 16.3421C22.0252 16.494 21.7087 16.5938 21.4046 16.6358C21.1005 16.6778 20.8148 16.6611 20.5637 16.5868C20.3127 16.5124 20.1012 16.3818 19.9414 16.2025C19.7816 16.0231 19.6767 15.7985 19.6325 15.5414C19.5883 15.2843 19.6057 14.9999 19.6839 14.7042C19.762 14.4086 19.8993 14.1076 20.0878 13.8184C20.2764 13.5292 20.5126 13.2575 20.7828 13.0188Z" fill="#EE8383"/>
            <path d="M43.0601 12.6642C40.6263 14.7945 40.3335 18.9016 40.3335 18.9016C17.3127 14.1777 12.6895 31.5069 12.6895 31.5069C12.6895 31.5069 27.8866 41.1243 41.5923 22.1096C41.5923 22.1096 44.6038 24.9315 47.8436 24.8538C47.8436 24.8538 45.0254 22.6968 43.7413 19.4246C42.4578 16.1527 43.0601 12.6642 43.0601 12.6642ZM18.4785 29.047C17.9389 29.257 17.3127 28.9455 17.0797 28.3516C16.8466 27.7578 17.095 27.1064 17.6346 26.8965C18.1742 26.6865 18.8003 26.9976 19.0334 27.5915C19.2664 28.1853 19.0182 28.8371 18.4785 29.047ZM23.6784 31.7047C23.652 31.8368 23.5659 31.9338 23.4568 31.9763C23.3868 32.0035 23.3061 32.0079 23.2249 31.9826C23.0198 31.9204 22.8891 31.6939 22.9337 31.4777C23.7378 27.5874 20.8214 25.7963 20.6976 25.7219C20.5083 25.6093 20.4297 25.3598 20.522 25.1647C20.6134 24.9695 20.8403 24.9015 21.03 25.0131C21.0659 25.0347 24.6125 27.1862 23.6784 31.7047Z" fill="#7A7871"/>
        </g>  
    </symbol>

    <symbol id="arrow-left" viewBox="0 0 18 10" >
        <path d="M5.00179 9.10745L5.10646 9.2094L5.21112 9.10745L5.35128 8.97092L5.46159 8.86347L5.35128 8.75602L1.74841 5.24656L17 5.24656H17.15V5.09656V4.90344V4.75344H17L1.74878 4.75344L5.35129 1.24398L5.46158 1.13653L5.35128 1.02909L5.21112 0.892552L5.10646 0.790595L5.00179 0.892553L0.895334 4.89275L0.785027 5.0002L0.895338 5.10764L5.00179 9.10745Z" fill="white" stroke="white" stroke-width="0.3"/>
    </symbol>


    <symbol id="arrow-right" viewBox="0 0 18 10">
        <path d="M12.9982 0.892548L12.8935 0.7906L12.7889 0.892553L12.6487 1.02909L12.5384 1.13654L12.6487 1.24398L16.2516 4.75344H1H0.85V4.90344V5.09656V5.24656H1H16.2512L12.6487 8.75602L12.5384 8.86347L12.6487 8.97091L12.7889 9.10745L12.8935 9.2094L12.9982 9.10745L17.1047 5.10725L17.215 4.9998L17.1047 4.89236L12.9982 0.892548Z" fill="white" stroke="white" stroke-width="0.3"/>
    </symbol>

    <symbol id="tree" viewBox="0 0 87 96" fill="none">
            <rect width="87" height="96" fill="#E5E5E5"/>
            <rect width="1920" height="8404" transform="translate(-611 -2399)" fill="white"/>
            <path d="M39.7487 5.26397C39.3993 4.93634 39.0498 4.69607 38.7222 4.52134C38.3945 4.36844 38.0232 4.28107 37.6082 4.28107C37.1277 4.28107 36.7782 4.39028 36.5379 4.58686C36.2977 4.78344 36.1666 5.11108 36.1666 5.54792C36.1666 5.85371 36.2977 6.13766 36.5598 6.33424C36.8219 6.55266 37.1277 6.74924 37.5208 6.94582C37.914 7.1424 38.329 7.33898 38.7658 7.5574C39.2027 7.77582 39.6177 8.01609 40.0108 8.32188C40.404 8.62767 40.7098 8.97715 40.9719 9.41399C41.234 9.85083 41.3651 10.375 41.3651 10.9866C41.3651 11.9258 41.103 12.734 40.6006 13.4111C40.0982 14.0882 39.3119 14.5251 38.3072 14.7653V16.8185H36.4069V14.8527C35.839 14.7872 35.2274 14.6343 34.594 14.3722C33.9606 14.1101 33.4145 13.7824 32.9558 13.3674L34.2227 11.4235C34.725 11.7948 35.2056 12.0787 35.6424 12.2753C36.1011 12.4719 36.5598 12.5593 37.0185 12.5593C37.5645 12.5593 37.9795 12.4501 38.2198 12.2316C38.4819 12.0132 38.6129 11.6637 38.6129 11.2051C38.6129 10.8556 38.4819 10.5716 38.2198 10.3314C37.9577 10.0911 37.6519 9.87268 37.2587 9.65425C36.8656 9.43583 36.4506 9.21741 36.0137 8.99899C35.5769 8.78057 35.1619 8.51846 34.7687 8.21267C34.3756 7.90688 34.0698 7.5574 33.8077 7.1424C33.5455 6.7274 33.4145 6.24687 33.4145 5.65713C33.4145 4.69607 33.6766 3.88791 34.2008 3.25449C34.725 2.62106 35.4677 2.20606 36.385 2.03132V0H38.2853V1.98764C38.9187 2.07501 39.4648 2.27159 39.9453 2.55554C40.4258 2.83949 40.8408 3.18896 41.234 3.60396L39.7487 5.26397Z" fill="#333B41"/>
            <path fill-rule="evenodd" clip-rule="evenodd" d="M86.7749 76.0006L83.1812 73.7891L75.1644 88.164L79.0346 90.0991L86.7749 76.0006Z" fill="#333B41"/>
            <path fill-rule="evenodd" clip-rule="evenodd" d="M81.2457 73.2355C71.8467 62.4543 63.5535 65.2187 52.4959 72.4062C42.8205 78.7643 35.633 74.3413 28.4455 77.3821C26.7869 78.2114 24.2989 80.1465 26.5104 82.0816C27.6162 82.9109 32.0393 83.7403 33.4215 83.4638C40.8854 81.8052 43.0969 85.1225 54.431 82.9109C51.1137 85.3989 40.3325 83.7403 33.6979 84.5696C28.4455 85.6753 19.8759 81.5287 26.7869 76.8292C23.746 75.447 20.9816 74.6177 17.6643 74.3413C14.3471 71.8533 9.09468 68.8124 6.33027 67.7067C4.11874 66.3245 -1.41007 66.8774 2.18366 70.4711C5.77739 73.7884 15.4528 81.2523 17.3879 82.358C25.1282 87.0575 32.3157 90.3748 39.7796 94.5214C39.7796 94.5214 42.2676 95.9036 47.2435 93.9686C50.8372 92.3099 66.8708 83.4638 70.741 84.846C72.9525 85.6753 74.0583 86.2282 74.0583 86.2282L81.2457 73.2355Z" stroke="#333B41" stroke-width="1.5"/>
            <path fill-rule="evenodd" clip-rule="evenodd" d="M34.5278 72.406C35.0807 71.3003 35.6336 70.471 36.4629 70.1945C37.2922 69.9181 37.5687 70.471 38.1216 71.0238C38.6744 71.8532 38.9509 72.1296 39.7802 72.6825C40.0566 72.9589 40.6095 72.9589 40.886 72.9589L40.3331 72.6825C39.5038 72.1296 38.9509 71.5767 39.2273 70.471C39.2273 70.1945 38.9509 69.6416 39.5038 69.6416C40.0566 69.9181 40.886 70.471 41.7153 70.471C41.7153 70.471 42.5446 70.7474 42.2682 70.471C42.2682 70.1945 41.7153 69.9181 41.4388 69.6416C39.7802 68.2594 39.7802 67.983 39.7802 66.0479C40.0566 63.2835 38.9509 61.072 37.0158 59.1369C32.5927 54.7138 34.5278 48.6321 37.8451 42.8269C40.886 37.5745 43.6504 36.7452 40.6095 30.387C39.5038 27.6226 37.5687 24.8582 37.2922 23.1996C37.2922 22.6467 37.2922 22.9231 37.2922 23.1996C37.0158 24.8582 38.1216 27.3462 39.2273 29.8342C41.7153 35.363 41.1624 35.9159 37.5687 40.8918C33.6985 45.8677 30.9341 51.1201 32.5927 56.6489C33.6985 60.5191 39.2273 64.3893 36.4629 66.8772C35.0807 67.983 33.1456 70.7474 32.8692 72.406C32.5927 73.2354 32.5927 73.2354 32.3163 73.7882C32.0399 74.0647 32.3163 74.0647 32.5927 74.0647C33.9749 73.7882 33.9749 73.2354 34.5278 72.406Z" fill="#333B41"/>
            <mask id="path-5-inside-1_0_1" fill="white">
            <path d="M40.8855 62.178C47.7965 62.178 53.3253 53.3319 53.0489 47.2502C45.3086 49.4617 40.8855 51.6732 40.0562 54.9905C39.5033 56.6492 39.7797 57.7549 41.1619 58.0314C41.9913 57.7549 44.2028 54.1612 48.3494 52.5026C44.7557 55.8198 44.2028 57.7549 41.1619 60.5193H40.8855C39.7797 59.9665 38.674 59.1371 38.3975 58.0314C37.8447 56.9256 37.8447 55.5434 38.1211 54.1612C39.2269 51.1203 42.2677 48.6324 47.5201 46.6973C50.2845 45.868 52.7725 44.7622 55.5369 44.7622C54.4311 50.8439 53.6018 55.8198 50.008 59.69C45.585 64.1131 41.1619 62.178 40.8855 62.178Z"/>
            </mask>
            <path d="M40.8855 62.178C47.7965 62.178 53.3253 53.3319 53.0489 47.2502C45.3086 49.4617 40.8855 51.6732 40.0562 54.9905C39.5033 56.6492 39.7797 57.7549 41.1619 58.0314C41.9913 57.7549 44.2028 54.1612 48.3494 52.5026C44.7557 55.8198 44.2028 57.7549 41.1619 60.5193H40.8855C39.7797 59.9665 38.674 59.1371 38.3975 58.0314C37.8447 56.9256 37.8447 55.5434 38.1211 54.1612C39.2269 51.1203 42.2677 48.6324 47.5201 46.6973C50.2845 45.868 52.7725 44.7622 55.5369 44.7622C54.4311 50.8439 53.6018 55.8198 50.008 59.69C45.585 64.1131 41.1619 62.178 40.8855 62.178Z"  fill="#333B41" stroke="#333B41" stroke-width="0" mask="url(#path-5-inside-1_0_1)"/>
            <mask id="path-6-inside-2_0_1" fill="white">
            <path d="M33.6982 41.168C27.6165 41.4445 22.917 33.7041 23.1934 28.4518C29.828 30.3868 33.6982 32.3219 34.5275 35.0863C35.0804 36.4685 34.5275 37.5743 33.4217 37.8507C32.5924 37.5743 30.6573 34.5335 27.0636 33.1513C30.3809 35.9157 30.9337 37.5743 33.4217 40.0623L33.6982 39.7858C34.8039 39.5094 35.6332 38.9565 35.9097 37.8507C36.4626 36.745 36.4626 35.6392 35.9097 34.5335C35.0804 31.7691 32.5924 29.5575 27.8929 28.1753C25.4049 27.346 23.4698 26.5167 20.9819 26.2402C22.0876 31.4926 22.6405 35.9157 25.9578 39.233C29.5515 43.1031 33.4217 41.4445 33.6982 41.168Z"/>
            </mask>
            <path d="M33.6982 41.168C27.6165 41.4445 22.917 33.7041 23.1934 28.4518C29.828 30.3868 33.6982 32.3219 34.5275 35.0863C35.0804 36.4685 34.5275 37.5743 33.4217 37.8507C32.5924 37.5743 30.6573 34.5335 27.0636 33.1513C30.3809 35.9157 30.9337 37.5743 33.4217 40.0623L33.6982 39.7858C34.8039 39.5094 35.6332 38.9565 35.9097 37.8507C36.4626 36.745 36.4626 35.6392 35.9097 34.5335C35.0804 31.7691 32.5924 29.5575 27.8929 28.1753C25.4049 27.346 23.4698 26.5167 20.9819 26.2402C22.0876 31.4926 22.6405 35.9157 25.9578 39.233C29.5515 43.1031 33.4217 41.4445 33.6982 41.168Z" fill="#333B41" stroke="#333B41" stroke-width="0" mask="url(#path-6-inside-2_0_1)"/>
            <mask id="path-7-inside-3_0_1" fill="white">
            <path d="M43.9258 31.4932C48.9018 31.4932 53.0484 25.1351 53.0484 20.4356C46.9667 22.0942 43.9258 23.7529 43.0965 26.2408C42.8201 27.3466 43.0965 28.1759 43.9258 28.4524C44.7552 28.4524 46.4138 25.6879 49.4547 24.3057C46.6902 26.7937 46.1374 28.1759 43.9258 30.3874C42.8201 30.111 42.2672 29.2817 41.9908 28.4524C41.4379 27.623 41.4379 26.5173 41.7143 25.6879C42.5436 23.2 44.7552 21.5413 48.6253 20.1591C50.8369 19.3298 52.7719 18.7769 54.707 18.5005C53.8777 22.9235 53.3248 26.7937 50.5604 29.8346C47.2431 33.1519 43.9258 31.4932 43.9258 31.4932Z"/>
            </mask>
            <path d="M43.9258 31.4932C48.9018 31.4932 53.0484 25.1351 53.0484 20.4356C46.9667 22.0942 43.9258 23.7529 43.0965 26.2408C42.8201 27.3466 43.0965 28.1759 43.9258 28.4524C44.7552 28.4524 46.4138 25.6879 49.4547 24.3057C46.6902 26.7937 46.1374 28.1759 43.9258 30.3874C42.8201 30.111 42.2672 29.2817 41.9908 28.4524C41.4379 27.623 41.4379 26.5173 41.7143 25.6879C42.5436 23.2 44.7552 21.5413 48.6253 20.1591C50.8369 19.3298 52.7719 18.7769 54.707 18.5005C53.8777 22.9235 53.3248 26.7937 50.5604 29.8346C47.2431 33.1519 43.9258 31.4932 43.9258 31.4932Z" fill="#333B41" stroke="#333B41" stroke-width="0" mask="url(#path-7-inside-3_0_1)"/>

    </symbol>

    <symbol id="green_arrow" viewBox="0 0 89 29">
        <path d="M0.323647 16.6526C0.731597 17.373 5.57619 15.1327 13.4221 12.1063C17.9663 10.3454 22.6292 8.90798 27.3761 7.80469C33.0829 6.49003 38.9466 5.98697 44.7939 6.31041C50.5839 6.67809 56.2576 8.10304 61.5343 10.5147C65.9558 12.4875 70.1851 14.8655 74.168 17.6183C77.0222 19.6033 79.3247 21.4162 81.0945 22.821C80.1979 22.8264 79.3194 22.8395 78.4809 22.8668C76.311 22.9372 74.3542 23.0784 72.7083 23.2784C69.4165 23.6785 67.3675 24.3142 67.3417 25.0904C67.316 25.8666 69.3184 26.6365 72.5765 27.2538C74.2056 27.5624 76.1486 27.8329 78.3091 28.0469C79.3893 28.1539 80.5239 28.2468 81.7008 28.3233C82.2894 28.3568 82.888 28.3908 83.4964 28.4254L84.415 28.4668C84.6069 28.4709 84.6181 28.4837 85.0467 28.4816C85.3477 28.4757 85.6469 28.4335 85.9378 28.356C86.4395 28.2229 86.9025 27.9726 87.2887 27.6257C87.6748 27.2788 87.9731 26.8452 88.1591 26.3606C88.2789 26.0503 88.3554 25.725 88.3862 25.3938C88.4051 25.1976 88.4111 25.0004 88.4041 24.8035L88.3882 24.495C88.3641 24.1123 88.3249 23.7405 88.2747 23.381C88.1759 22.7054 88.0418 22.0355 87.8728 21.374C87.5533 20.1273 87.2228 19.0882 86.8956 18.0415C86.2376 15.9725 85.5695 14.128 84.9292 12.5985C83.6489 9.53957 82.4799 7.74071 81.726 7.92712C80.972 8.11353 80.7758 10.2497 81.068 13.553C81.2141 15.2046 81.4823 17.1479 81.864 19.2852C81.906 19.5043 81.95 19.7345 81.9928 19.958C80.3396 18.0026 78.543 16.1732 76.6178 14.4849C72.7108 11.0697 68.3881 8.16187 63.7522 5.8303C57.9751 2.85396 51.6443 1.10624 45.1585 0.697253C38.7399 0.329816 32.305 1.03266 26.1171 2.777C21.1565 4.17363 16.3553 6.08444 11.7916 8.47837C4.07781 12.5681 -0.0395786 16.029 0.323647 16.6526Z" fill="#468E0D"/>
    </symbol>

    <symbol id="rev-closeBtn" viewBox="0 0 14 1stop4">
        <g>
            <path d="M1 14C0.744141 14 0.488281 13.9023 0.292969 13.707C-0.0976562 13.3164 -0.0976562 12.6836 0.292969 12.293L12.293 0.292969C12.6836 -0.0976562 13.3164 -0.0976562 13.707 0.292969C14.0977 0.683594 14.0977 1.31641 13.707 1.70703L1.70703 13.707C1.51172 13.9023 1.25586 14 1 14Z" />
            <path d="M1 14C0.744141 14 0.488281 13.9023 0.292969 13.707C-0.0976562 13.3164 -0.0976562 12.6836 0.292969 12.293L12.293 0.292969C12.6836 -0.0976562 13.3164 -0.0976562 13.707 0.292969C14.0977 0.683594 14.0977 1.31641 13.707 1.70703L1.70703 13.707C1.51172 13.9023 1.25586 14 1 14Z" />
            <path d="M1 14C0.744141 14 0.488281 13.9023 0.292969 13.707C-0.0976562 13.3164 -0.0976562 12.6836 0.292969 12.293L12.293 0.292969C12.6836 -0.0976562 13.3164 -0.0976562 13.707 0.292969C14.0977 0.683594 14.0977 1.31641 13.707 1.70703L1.70703 13.707C1.51172 13.9023 1.25586 14 1 14Z" />
            <path d="M13 14C12.7441 14 12.4883 13.9023 12.293 13.707L0.292969 1.70703C-0.0976562 1.31641 -0.0976562 0.683594 0.292969 0.292969C0.683594 -0.0976562 1.31641 -0.0976562 1.70703 0.292969L13.707 12.293C14.0977 12.6836 14.0977 13.3164 13.707 13.707C13.5117 13.9023 13.2559 14 13 14Z" />
            <path d="M13 14C12.7441 14 12.4883 13.9023 12.293 13.707L0.292969 1.70703C-0.0976562 1.31641 -0.0976562 0.683594 0.292969 0.292969C0.683594 -0.0976562 1.31641 -0.0976562 1.70703 0.292969L13.707 12.293C14.0977 12.6836 14.0977 13.3164 13.707 13.707C13.5117 13.9023 13.2559 14 13 14Z" />
            <path d="M13 14C12.7441 14 12.4883 13.9023 12.293 13.707L0.292969 1.70703C-0.0976562 1.31641 -0.0976562 0.683594 0.292969 0.292969C0.683594 -0.0976562 1.31641 -0.0976562 1.70703 0.292969L13.707 12.293C14.0977 12.6836 14.0977 13.3164 13.707 13.707C13.5117 13.9023 13.2559 14 13 14Z" />             
        </g>  
    </symbol>
</svg>
